<svg id="Layer_1" data-name="Layer 1" xmlns="http://www.w3.org/2000/svg" viewBox="0 0 112.25 56.5"><defs><style>.cls-1{font-size:48px;font-family:TimesNewRomanPSMT, Times New Roman;}.cls-1,.cls-4{fill:#991b1b;}.cls-2,.cls-3{font-size:36px;}.cls-3{letter-spacing:-0.06em;}</style></defs><text class="cls-1" transform="translate(0 39.89)">H<tspan class="cls-2" x="34.66" y="0">AN</tspan><tspan class="cls-3" x="86.66" y="0">A</tspan></text><path class="cls-4" d="M249.79,286.12v-9.8h.7v9.8Zm.42-9.1v-.7h5.55v.7Zm0,4.53v-.7h4.86v.7Z" transform="translate(-217.8 -232.83)"/><path class="cls-4" d="M257.51,286.12V275.76h.7v10.36Z" transform="translate(-217.8 -232.83)"/><path class="cls-4" d="M263.32,286.26a3.84,3.84,0,0,1-1.93-.49,3.48,3.48,0,0,1-1.33-1.36,3.93,3.93,0,0,1-.49-2,3.81,3.81,0,0,1,.49-1.94,3.54,3.54,0,0,1,1.33-1.33,4.14,4.14,0,0,1,3.87,0,3.54,3.54,0,0,1,1.33,1.33,4,4,0,0,1,.47,1.94,4.14,4.14,0,0,1-.47,2,3.48,3.48,0,0,1-1.33,1.36A3.85,3.85,0,0,1,263.32,286.26Zm0-.7a3,3,0,0,0,1.55-.41,2.93,2.93,0,0,0,1.07-1.11,3.33,3.33,0,0,0,.38-1.61,3.26,3.26,0,0,0-.38-1.57,2.87,2.87,0,0,0-1.07-1.09,3.05,3.05,0,0,0-1.55-.39,3.11,3.11,0,0,0-1.56.39,2.85,2.85,0,0,0-1.06,1.09,3.15,3.15,0,0,0-.39,1.57,3.23,3.23,0,0,0,.39,1.61,2.9,2.9,0,0,0,1.06,1.11A3,3,0,0,0,263.32,285.56Z" transform="translate(-217.8 -232.83)"/><path class="cls-4" d="M268.53,286.12v-7.28h.67l.07,1.62h-.09a2.84,2.84,0,0,1,.47-.87,2.65,2.65,0,0,1,.79-.66,2.4,2.4,0,0,1,1.09-.25,2.06,2.06,0,0,1,.44,0l.37.07-.21.82a1.51,1.51,0,0,0-.38-.12,1.89,1.89,0,0,0-.32,0,2.24,2.24,0,0,0-1,.19,1.85,1.85,0,0,0-.69.54,2.22,2.22,0,0,0-.4.78,3,3,0,0,0-.14.91v4.23Z" transform="translate(-217.8 -232.83)"/><path class="cls-4" d="M274,277.31a.64.64,0,0,1-.47-.17.62.62,0,0,1-.17-.46.65.65,0,0,1,.17-.46.64.64,0,0,1,.47-.17.65.65,0,0,1,.48.17.62.62,0,0,1,.17.46.61.61,0,0,1-.17.45A.62.62,0,0,1,274,277.31Zm-.35,8.81v-7.28h.7v7.28Z" transform="translate(-217.8 -232.83)"/><path class="cls-4" d="M279.12,286.26a3.73,3.73,0,0,1-1.7-.38,3,3,0,0,1-1.13-.9l.53-.46a2.52,2.52,0,0,0,1,.78,3.27,3.27,0,0,0,1.36.27,3.13,3.13,0,0,0,.77-.09,1.88,1.88,0,0,0,.59-.26,1.27,1.27,0,0,0,.39-.41,1.16,1.16,0,0,0,.14-.56,1.1,1.1,0,0,0-.52-.92,2.79,2.79,0,0,0-.6-.31c-.24-.09-.53-.19-.86-.28q-.74-.23-1.26-.42a2.32,2.32,0,0,1-.82-.49,1.82,1.82,0,0,1-.34-.51,1.63,1.63,0,0,1-.11-.59,1.83,1.83,0,0,1,.18-.82,1.92,1.92,0,0,1,.52-.65,2.37,2.37,0,0,1,.78-.43,3.13,3.13,0,0,1,1-.15,3.6,3.6,0,0,1,1,.15,3.77,3.77,0,0,1,.94.41,3.26,3.26,0,0,1,.75.62l-.47.52a3.94,3.94,0,0,0-.61-.55,2.73,2.73,0,0,0-.72-.37,2.65,2.65,0,0,0-.87-.13,2.71,2.71,0,0,0-.71.09,1.56,1.56,0,0,0-.56.29,1.35,1.35,0,0,0-.37.43,1.14,1.14,0,0,0-.14.54.84.84,0,0,0,.09.4.88.88,0,0,0,.26.33,2.24,2.24,0,0,0,.64.34l1,.31a9.61,9.61,0,0,1,.93.28,2.85,2.85,0,0,1,.7.33,2,2,0,0,1,.67.66,1.75,1.75,0,0,1,.22.87,1.79,1.79,0,0,1-.34,1.06,2.25,2.25,0,0,1-.94.73A3.33,3.33,0,0,1,279.12,286.26Z" transform="translate(-217.8 -232.83)"/><path class="cls-4" d="M282.81,279.48v-.64h4.41v.64Zm1.75,6.64v-9.23h.7v9.23Z" transform="translate(-217.8 -232.83)"/><path class="cls-4" d="M288.48,286.12v-7.28h.67l.07,1.62h-.09a2.84,2.84,0,0,1,.47-.87,2.65,2.65,0,0,1,.79-.66,2.4,2.4,0,0,1,1.09-.25,2.06,2.06,0,0,1,.44,0l.37.07-.21.82a1.51,1.51,0,0,0-.38-.12,1.89,1.89,0,0,0-.32,0,2.24,2.24,0,0,0-1,.19,1.85,1.85,0,0,0-.69.54,2.22,2.22,0,0,0-.4.78,3,3,0,0,0-.14.91v4.23Z" transform="translate(-217.8 -232.83)"/><path class="cls-4" d="M294.56,289.34l1.36-3.46.15.84-3.67-7.88h.74l2.7,5.79a5.65,5.65,0,0,1,.28.62c.08.2.16.41.26.63l-.42-.17c.05-.13.11-.26.16-.4s.1-.27.16-.4l2.43-6.07h.75l-2.9,7.28-1.27,3.22Z" transform="translate(-217.8 -232.83)"/></svg>
