<svg id="Layer_1" data-name="Layer 1" xmlns="http://www.w3.org/2000/svg" viewBox="0 0 112.25 56.51"><defs><style>.cls-1,.cls-2,.cls-3,.cls-4{isolation:isolate;}.cls-2{font-size:48px;}.cls-2,.cls-3,.cls-4,.cls-5{fill:#fee2e2;}.cls-2,.cls-3,.cls-4{font-family:TimesNewRomanPSMT, Times New Roman;}.cls-3,.cls-4{font-size:36px;}.cls-4{letter-spacing:-0.11em;}</style></defs><g class="cls-1"><text class="cls-2" transform="translate(0 39.89)">H</text><text class="cls-3" transform="translate(34.66 39.89)">AN</text><text class="cls-4" transform="translate(86.66 39.89)">A</text></g><path class="cls-5" d="M32,53.29v-9.8h.7v9.8Zm.42-9.1v-.7H38v.7Zm0,4.53V48h4.86v.7Z" transform="translate(0 0)"/><path class="cls-5" d="M39.71,53.29V42.93h.7V53.29Z" transform="translate(0 0)"/><path class="cls-5" d="M45.52,53.43a3.82,3.82,0,0,1-1.93-.49,3.48,3.48,0,0,1-1.33-1.36,4.2,4.2,0,0,1,0-3.94,3.54,3.54,0,0,1,1.33-1.33,4.14,4.14,0,0,1,3.87,0,3.54,3.54,0,0,1,1.33,1.33,4,4,0,0,1,.47,1.94,4.21,4.21,0,0,1-.47,2,3.48,3.48,0,0,1-1.33,1.36A3.86,3.86,0,0,1,45.52,53.43Zm0-.7a3,3,0,0,0,1.55-.41,2.92,2.92,0,0,0,1.07-1.11,3.35,3.35,0,0,0,.38-1.61A3.17,3.17,0,0,0,48.14,48a2.87,2.87,0,0,0-1.07-1.09,3,3,0,0,0-1.55-.39,3.14,3.14,0,0,0-1.56.39A2.85,2.85,0,0,0,42.9,48a3.18,3.18,0,0,0-.39,1.57,3.22,3.22,0,0,0,.39,1.61A2.9,2.9,0,0,0,44,52.32,2.94,2.94,0,0,0,45.52,52.73Z" transform="translate(0 0)"/><path class="cls-5" d="M50.73,53.29V46h.67l.07,1.62h-.09a2.62,2.62,0,0,1,.47-.87,2.78,2.78,0,0,1,.79-.66,2.42,2.42,0,0,1,1.09-.25,1.62,1.62,0,0,1,.44,0l.37.07-.21.82a1.29,1.29,0,0,0-.38-.12h-.32a2.29,2.29,0,0,0-1,.19,1.83,1.83,0,0,0-.69.54,2.31,2.31,0,0,0-.4.78,3.09,3.09,0,0,0-.14.91v4.23Z" transform="translate(0 0)"/><path class="cls-5" d="M56.2,44.48a.64.64,0,0,1-.47-.17.6.6,0,0,1-.17-.46.66.66,0,0,1,.17-.46.64.64,0,0,1,.47-.17.65.65,0,0,1,.48.17.6.6,0,0,1,.17.46.58.58,0,0,1-.17.45A.62.62,0,0,1,56.2,44.48Zm-.35,8.81V46h.7v7.28Z" transform="translate(0 0)"/><path class="cls-5" d="M61.32,53.43a3.71,3.71,0,0,1-1.7-.38,3,3,0,0,1-1.13-.9l.53-.46a2.55,2.55,0,0,0,1,.78,3.18,3.18,0,0,0,1.36.27,3.31,3.31,0,0,0,.77-.09,1.83,1.83,0,0,0,.59-.26,1.38,1.38,0,0,0,.39-.41,1.19,1.19,0,0,0,.14-.56,1.11,1.11,0,0,0-.52-.92,2.85,2.85,0,0,0-.6-.31c-.24-.09-.53-.19-.86-.28q-.74-.22-1.26-.42a2.3,2.3,0,0,1-.82-.49,1.75,1.75,0,0,1-.34-.51,1.71,1.71,0,0,1-.11-.59,2,2,0,0,1,.18-.82,1.92,1.92,0,0,1,.52-.65,2.39,2.39,0,0,1,.78-.43,3.41,3.41,0,0,1,2,0,3.58,3.58,0,0,1,.94.41,3.44,3.44,0,0,1,.75.62l-.47.52a4,4,0,0,0-.61-.55,2.73,2.73,0,0,0-.72-.37,2.55,2.55,0,0,0-.87-.13,2.82,2.82,0,0,0-.71.09,1.66,1.66,0,0,0-.56.29,1.39,1.39,0,0,0-.37.43,1.14,1.14,0,0,0-.14.54.9.9,0,0,0,.09.4.93.93,0,0,0,.26.33,2.19,2.19,0,0,0,.64.34l1,.31c.31.08.62.17.93.28a3,3,0,0,1,.7.33,2,2,0,0,1,.67.66,1.79,1.79,0,0,1,.22.87,1.83,1.83,0,0,1-.34,1.06,2.25,2.25,0,0,1-.94.73A3.32,3.32,0,0,1,61.32,53.43Z" transform="translate(0 0)"/><path class="cls-5" d="M65,46.65V46h4.41v.64Zm1.75,6.64V44.06h.7v9.23Z" transform="translate(0 0)"/><path class="cls-5" d="M70.68,53.29V46h.67l.07,1.62h-.09a2.62,2.62,0,0,1,.47-.87,2.78,2.78,0,0,1,.79-.66,2.42,2.42,0,0,1,1.09-.25,1.62,1.62,0,0,1,.44,0l.37.07-.21.82a1.29,1.29,0,0,0-.38-.12h-.32a2.29,2.29,0,0,0-1,.19,1.83,1.83,0,0,0-.69.54,2.31,2.31,0,0,0-.4.78,3.09,3.09,0,0,0-.14.91v4.23Z" transform="translate(0 0)"/><path class="cls-5" d="M76.76,56.51l1.36-3.46.15.84L74.6,46h.74L78,51.8a4.91,4.91,0,0,1,.28.62c.08.2.16.41.26.63l-.42-.17c0-.13.11-.26.16-.4s.1-.27.16-.4L80.91,46h.75l-2.9,7.28-1.27,3.22Z" transform="translate(0 0)"/></svg>